<?xml version="1.0" encoding="utf-8"?>
<!-- Generator: Adobe Illustrator 27.2.0, SVG Export Plug-In . SVG Version: 6.00 Build 0)  -->
<svg version="1.1" id="Camada_2" xmlns="http://www.w3.org/2000/svg" xmlns:xlink="http://www.w3.org/1999/xlink" x="0px" y="0px"
	 viewBox="0 0 366.12 198.9" style="enable-background:new 0 0 366.12 198.9;" xml:space="preserve">
<style type="text/css">
	.st0{stroke:#FFFFFF;stroke-miterlimit:10;}
	.st1{fill:#FFFFFF;}
	.st2{fill:#FFFFFF;stroke:#1D1D1B;stroke-miterlimit:10;}
	.st3{fill:#000067;}
	.st4{fill:#000067;stroke:#1D1D1B;stroke-miterlimit:10;}
	.st5{fill:#FFBE00;}
	.st6{fill:#FFBE00;stroke:#1D1D1B;stroke-miterlimit:10;}
</style>
<g>
	<path d="M147.38,128.65c-0.35,0.65-0.74,1.3-1.13,1.93c-0.46,0.75-0.94,1.48-1.44,2.2l-0.01,0.01
		c-9.61,13.95-25.7,23.09-43.92,23.09c-29.45,0-53.33-23.88-53.33-53.33c0-29.45,23.88-53.33,53.33-53.33
		c20.36,0,38.05,11.41,47.04,28.19c0.19,0.34,0.37,0.69,0.55,1.04c0.17,0.34,0.34,0.68,0.51,1.03l0.07,0.15h11.29
		c-0.14-0.39-0.3-0.79-0.46-1.18c-0.14-0.35-0.29-0.7-0.44-1.04c-0.67-1.59-1.42-3.14-2.22-4.65
		c-5.98-11.29-15.26-20.57-26.55-26.55c-3.49-1.85-7.17-3.39-11.02-4.57h-0.01c-5.93-1.83-12.23-2.81-18.76-2.81
		c-6.53,0-12.83,0.98-18.76,2.81h-0.01c-3.85,1.18-7.53,2.72-11.02,4.57C59.8,52.19,50.52,61.47,44.54,72.76
		c-1.85,3.49-3.39,7.17-4.57,11.02v0.01c-1.83,5.93-2.81,12.23-2.81,18.76c0,6.53,0.98,12.83,2.81,18.76v0.01
		c1.18,3.85,2.72,7.53,4.57,11.02c5.98,11.29,15.26,20.57,26.55,26.55c3.49,1.85,7.17,3.39,11.02,4.57h0.01
		c5.93,1.83,12.23,2.81,18.76,2.81c6.53,0,12.83-0.98,18.76-2.81h0.01c3.85-1.18,7.53-2.72,11.02-4.57
		c11.14-5.9,20.32-15.01,26.3-26.1c0.09-0.15,0.17-0.3,0.25-0.45c0.3-0.56,0.59-1.12,0.87-1.7c0.32-0.66,0.64-1.32,0.93-1.99H147.38
		z"/>
</g>
<g>
	<polygon points="111.5,23.23 100.88,23.23 90.26,23.23 79.64,47.23 100.88,47.23 122.12,47.23 	"/>
</g>
<g>
	<polygon points="52.3,38.95 44.79,46.46 37.28,53.97 46.74,78.45 61.76,63.43 76.78,48.41 	"/>
</g>
<g>
	<polygon points="21.56,91.93 21.56,102.55 21.56,113.17 45.56,123.79 45.56,102.55 45.56,81.31 	"/>
</g>
<g>
	<polygon points="37.28,151.13 44.79,158.64 52.3,166.15 76.78,156.69 61.76,141.67 46.74,126.65 	"/>
</g>
<g>
	<polygon points="90.26,181.87 100.88,181.87 111.5,181.87 122.12,157.87 100.88,157.87 79.64,157.87 	"/>
</g>
<g>
	<polygon points="164.48,151.13 149.46,166.15 130.67,158.89 124.98,156.69 153.02,128.65 155.79,128.65 157.22,132.34 
		157.39,132.79 	"/>
</g>
<g>
	<polygon points="164.47,53.97 156.96,46.46 149.46,38.95 124.98,48.41 139.99,63.43 155.01,78.45 	"/>
</g>
<g>
	<polygon points="278.84,128.95 278.84,133.09 145.1,133.09 145.11,133.08 147.68,128.95 	"/>
	<path d="M279.21,133.46H144.16l0.68-0.65l2.63-4.24h131.74V133.46z M145.78,132.71h132.69v-3.39H147.89L145.78,132.71z"/>
</g>
<g>
	<polygon points="212.46,79.63 149.45,79.63 149.38,79.48 148.32,77.41 209.46,77.41 	"/>
	<path d="M213.59,80h-64.39l-0.17-0.37l-1.33-2.6h61.88L213.59,80z M149.68,79.25h61.64l-1.99-1.47h-60.4L149.68,79.25z"/>
</g>
<g>
	<path d="M89.68,107.14v-1.91c3.92-0.41,4.18-0.77,4.18-5.42l-0.05-20.13c-3.72,8.88-7.79,18.69-11.51,27.46h-1.7
		c-3.36-8.41-7.02-18.02-10.74-27.05c-0.67,16.21-0.67,19.41-0.67,21.27c0.05,2.79,1.08,3.51,4.96,3.87v1.91h-12.8v-1.91
		c2.94-0.26,4.28-0.83,4.7-3.92c0.21-1.55,0.41-4.49,1.6-21.53c0.16-2.48-0.21-3.87-4.65-4.29v-1.91h11.15l9.96,22.76l10.01-22.76
		h10.89v1.91c-4.13,0.41-4.59,0.83-4.49,4.96l0.41,19.36c0.05,4.65,0.26,4.85,4.44,5.42v1.91H89.68z"/>
</g>
<g>
	<path d="M145.37,102.53c-0.33-1.38-0.99-2.52-1.29-2.94c-0.54-0.63-0.78-0.87-2.55-0.87h-1.92v14.08c0,2.52,0.3,2.7,2.97,2.91v1.11
		h-9.95v-1.11c2.55-0.21,2.82-0.39,2.82-2.91V98.72h-1.83c-1.68,0-2.16,0.27-2.73,0.99c-0.42,0.57-0.84,1.65-1.23,2.85h-1.14
		c0.21-2.19,0.42-4.53,0.48-5.96h0.9c0.45,0.69,0.81,0.75,1.71,0.75h11.99c0.81,0,1.23-0.18,1.74-0.75h0.87
		c0.03,1.26,0.15,3.9,0.3,5.84L145.37,102.53z"/>
	<path d="M167.47,117c-0.18,0-0.54,0-0.9-0.03c-3.81-0.18-4.92-0.99-5.81-2.25c-1.2-1.65-2.07-3.48-3.09-5.27
		c-0.45-0.81-0.87-0.99-1.83-0.99l-0.6-0.03v4.38c0,2.43,0.3,2.64,2.55,2.91v1.11h-9.17v-1.11c2.28-0.24,2.55-0.48,2.55-2.91v-11.48
		c0-2.37-0.3-2.7-2.55-2.88v-1.11h8.69c2.67,0,4.2,0.3,5.42,1.14c1.2,0.81,2.01,2.13,2.01,3.99c0,2.67-1.77,4.08-3.75,4.85
		c0.45,0.9,1.62,2.85,2.52,4.23c1.05,1.65,1.71,2.46,2.28,3.12c0.69,0.78,1.02,1.02,1.89,1.32L167.47,117z M156.05,107.2
		c1.29,0,2.28-0.21,2.94-0.78c0.99-0.84,1.41-1.98,1.41-3.51c0-3.18-1.83-4.32-3.51-4.32c-0.81,0-1.2,0.12-1.38,0.3
		c-0.21,0.18-0.27,0.54-0.27,1.14v7.16H156.05z"/>
	<path d="M179.94,116.82v-1.11c1.89-0.27,1.89-0.6,1.47-1.89c-0.3-0.9-0.78-2.25-1.23-3.45h-5.84c-0.33,0.93-0.75,2.07-1.05,3
		c-0.63,1.89,0.09,2.13,2.46,2.34v1.11h-7.4v-1.11c1.89-0.24,2.37-0.51,3.39-3.03l6.23-15.49l1.44-0.27
		c1.92,5.21,3.96,10.55,5.9,15.55c1.11,2.79,1.38,3,3.33,3.24v1.11H179.94z M177.3,102.5c-0.87,2.16-1.71,4.17-2.46,6.35h4.77
		L177.3,102.5z"/>
	<path d="M203.89,102.53c-0.33-1.38-0.99-2.52-1.29-2.94c-0.54-0.63-0.78-0.87-2.55-0.87h-1.92v14.08c0,2.52,0.3,2.7,2.97,2.91v1.11
		h-9.95v-1.11c2.55-0.21,2.82-0.39,2.82-2.91V98.72h-1.83c-1.68,0-2.16,0.27-2.73,0.99c-0.42,0.57-0.84,1.65-1.23,2.85h-1.14
		c0.21-2.19,0.42-4.53,0.48-5.96h0.9c0.45,0.69,0.81,0.75,1.71,0.75h11.99c0.81,0,1.23-0.18,1.74-0.75h0.87
		c0.03,1.26,0.15,3.9,0.3,5.84L203.89,102.53z"/>
	<path d="M217.68,96.92c5.54,0,10.07,4.05,10.07,9.95c0,6.38-4.56,10.4-10.22,10.4c-5.99,0-10.34-4.38-10.34-10.16
		C207.19,101.99,210.84,96.92,217.68,96.92z M217.23,98.24c-3.06,0-5.3,3-5.3,8.3c0,5.07,2.01,9.41,6.05,9.41
		c2.85,0,5.06-2.76,5.06-8.24C223.04,101.78,220.7,98.24,217.23,98.24z"/>
	<path d="M249.21,117c-0.18,0-0.54,0-0.9-0.03c-3.81-0.18-4.91-0.99-5.81-2.25c-1.2-1.65-2.07-3.48-3.09-5.27
		c-0.45-0.81-0.87-0.99-1.83-0.99l-0.6-0.03v4.38c0,2.43,0.3,2.64,2.55,2.91v1.11h-9.17v-1.11c2.28-0.24,2.55-0.48,2.55-2.91v-11.48
		c0-2.37-0.3-2.7-2.55-2.88v-1.11h8.69c2.67,0,4.2,0.3,5.42,1.14c1.2,0.81,2.01,2.13,2.01,3.99c0,2.67-1.77,4.08-3.75,4.85
		c0.45,0.9,1.62,2.85,2.52,4.23c1.05,1.65,1.71,2.46,2.28,3.12c0.69,0.78,1.02,1.02,1.89,1.32L249.21,117z M237.79,107.2
		c1.29,0,2.28-0.21,2.94-0.78c0.99-0.84,1.41-1.98,1.41-3.51c0-3.18-1.83-4.32-3.51-4.32c-0.81,0-1.2,0.12-1.38,0.3
		c-0.21,0.18-0.27,0.54-0.27,1.14v7.16H237.79z"/>
	<path d="M258.98,97.34c2.37,0,4.17,0.42,5.39,1.23c1.5,0.99,2.34,2.43,2.34,4.5c0,4.34-3.69,6.17-6.89,6.2
		c-0.3,0-0.69-0.03-0.9-0.06l-1.74-0.45v4.08c0,2.52,0.21,2.64,2.82,2.88v1.11h-9.53v-1.11c2.25-0.27,2.55-0.36,2.55-2.88v-11.45
		c0-2.52-0.3-2.79-2.55-2.94v-1.11H258.98z M257.18,107.5c0.36,0.18,0.96,0.3,1.59,0.3c1.38,0,3.63-0.81,3.63-4.76
		c0-3.36-1.83-4.46-3.78-4.46c-0.63,0-0.99,0.15-1.17,0.3c-0.21,0.18-0.27,0.48-0.27,0.93V107.5z"/>
	<path d="M285.57,111.73c-0.15,0.81-0.99,4.26-1.26,5.09h-15.55v-1.08c2.73-0.27,2.91-0.42,2.91-2.94v-11.45
		c0-2.55-0.36-2.73-2.4-2.91v-1.11H279c3.15,0,4.2-0.03,4.62-0.06c0.03,0.54,0.18,3,0.3,4.85l-1.17,0.15
		c-0.27-1.02-0.78-2.25-1.29-2.79c-0.54-0.6-0.93-0.78-2.46-0.78h-1.95c-1.14,0-1.26,0.06-1.26,1.08v6.26h2.94
		c1.68,0,1.98-0.45,2.43-2.58h1.17v6.68h-1.17c-0.48-2.22-0.72-2.58-2.46-2.58h-2.91v5.15c0,2.07,0.06,2.7,1.92,2.73h2.13
		c1.68,0,2.13-0.21,2.79-1.02c0.75-0.87,1.35-1.98,1.83-3L285.57,111.73z"/>
	<path d="M306.28,111.67c-0.42,1.5-1.2,3.78-1.68,4.83c-0.78,0.18-3.24,0.78-5.51,0.78c-8.06,0-11.39-5.18-11.39-9.95
		c0-6.2,4.74-10.4,11.93-10.4c2.61,0,4.92,0.63,5.66,0.72c0.15,1.41,0.36,3.63,0.57,4.95l-1.2,0.21c-0.63-2.34-1.53-3.45-3.12-4.08
		c-0.72-0.3-1.8-0.42-2.61-0.42c-4.35,0-6.53,3.63-6.53,8.33c0,5.48,2.82,9.2,6.92,9.2c2.52,0,4.2-1.32,5.81-4.62L306.28,111.67z
		 M299.42,117.18c-0.51,0.54-0.99,1.14-0.99,1.29c0,0.21,0.15,0.42,0.78,0.66c1.8,0.75,2.19,1.38,2.19,2.25
		c0,1.62-1.59,3.06-4.88,3.33l-0.27-0.96c1.95-0.42,2.73-0.87,2.73-1.44c0-0.39-0.3-0.63-1.38-1.08c-0.96-0.42-1.47-0.87-1.44-1.53
		c0-0.54,0.66-1.38,1.95-2.52H299.42z"/>
	<path d="M319.44,116.82v-1.11c1.89-0.27,1.89-0.6,1.47-1.89c-0.3-0.9-0.78-2.25-1.23-3.45h-5.84c-0.33,0.93-0.75,2.07-1.05,3
		c-0.63,1.89,0.09,2.13,2.46,2.34v1.11h-7.4v-1.11c1.89-0.24,2.37-0.51,3.39-3.03l6.23-15.49l1.44-0.27
		c1.92,5.21,3.96,10.55,5.9,15.55c1.11,2.79,1.38,3,3.33,3.24v1.11H319.44z M316.8,102.5c-0.87,2.16-1.71,4.17-2.46,6.35h4.76
		L316.8,102.5z"/>
	<path d="M340.9,102.29c-0.6-1.92-1.44-4.11-4.2-4.11c-1.74,0-2.88,1.23-2.88,2.91c0,1.65,1.11,2.64,3.75,3.96
		c3.21,1.59,5.25,3.15,5.25,6.11c0,3.54-2.94,6.11-7.22,6.11c-1.92,0-3.63-0.51-5.04-0.93c-0.18-0.69-0.69-3.81-0.9-5.21l1.17-0.27
		c0.6,1.89,2.28,5.16,5.21,5.16c1.83,0,2.94-1.14,2.94-3.06c0-1.74-1.08-2.76-3.6-4.11c-3.12-1.68-5.15-3.18-5.15-6.29
		c0-3.15,2.46-5.63,6.95-5.63c2.07,0,3.63,0.45,4.29,0.54c0.12,1.11,0.33,2.67,0.57,4.56L340.9,102.29z"/>
</g>
<g>
	<path d="M122.95,113.14c-2.94,0.52-3.3,0.72-3.3,4.23v3.97c0,1.86,0.05,3.61,0.31,5.01c-2.63,0.46-8.31,1.7-12.49,1.7
		c-12.13,0-19.1-7.38-19.1-17.6c0-11.62,9.45-17.45,20.44-17.45c4.18,0,8.72,1.03,10.43,1.19c0.1,2.27,0.52,6.19,0.88,9.03
		l-2.01,0.36c-1.24-4.39-3.15-6.61-6.35-7.69c-1.19-0.41-3.1-0.62-4.39-0.62c-6.25,0-10.94,5.42-10.94,14.3
		c0,9.08,3.2,16.26,11.67,16.26c1.03,0,2.37-0.16,3.3-0.72c0.77-0.46,1.19-1.34,1.19-2.94v-4.54c0-3.61-0.72-3.97-5.06-4.49v-1.91
		h15.43V113.14z"/>
</g>
</svg>
